<?xml version="1.0" standalone="no"?>
<!DOCTYPE svg PUBLIC "-//W3C//DTD SVG 20010904//EN"
 "http://www.w3.org/TR/2001/REC-SVG-20010904/DTD/svg10.dtd">
<svg version="1.0" xmlns="http://www.w3.org/2000/svg"
 width="1024.000000pt" height="1024.000000pt" viewBox="0 0 1024.000000 1024.000000"
 preserveAspectRatio="xMidYMid meet">

<g transform="translate(0.000000,1024.000000) scale(0.100000,-0.100000)"
fill="#000000" stroke="none">
<path d="M5040 8995 c-20 -21 -29 -23 -66 -18 -37 5 -46 2 -68 -20 -14 -14
-26 -33 -26 -41 0 -13 -11 -14 -63 -9 -61 5 -65 4 -98 -25 -43 -39 -46 -90 -7
-149 25 -38 25 -40 8 -64 -27 -38 -61 -138 -60 -178 0 -20 -3 -65 -7 -101 l-8
-65 -55 -8 c-80 -12 -176 -3 -335 33 -151 34 -228 36 -313 6 -38 -14 -45 -13
-134 16 -228 75 -423 16 -509 -153 -98 -195 -68 -428 76 -576 l51 -53 -59 -57
c-133 -130 -317 -384 -402 -553 -247 -492 -325 -1010 -235 -1550 52 -310 195
-661 379 -934 11 -17 18 -34 15 -38 -3 -5 0 -7 8 -6 7 2 12 -5 12 -14 -1 -10
2 -16 6 -15 3 1 47 -48 97 -108 160 -196 393 -401 597 -526 48 -29 86 -54 86
-56 0 -2 -7 -14 -16 -28 -14 -22 -14 -24 6 -35 12 -6 24 -9 27 -6 3 3 12 -1
20 -9 8 -8 20 -15 26 -15 7 0 4 5 -6 11 -17 10 -15 29 4 29 6 0 7 -5 3 -12 -4
-7 -3 -8 5 -4 6 4 9 12 6 17 -7 11 -35 12 -35 1 0 -4 -9 -8 -20 -9 -21 -2 -27
11 -10 22 6 3 10 12 10 18 0 7 -4 6 -10 -3 -5 -8 -10 -10 -10 -4 0 6 3 13 6
17 10 9 94 -35 87 -46 -3 -6 -2 -7 4 -4 6 4 62 -17 125 -47 98 -45 126 -63
182 -119 61 -61 65 -68 56 -92 -17 -45 -12 -110 11 -139 28 -36 76 -59 108
-53 26 6 27 5 26 -53 0 -52 4 -62 30 -90 41 -43 91 -56 137 -37 l36 15 6 -38
c11 -72 102 -114 169 -79 17 9 22 9 26 -2 2 -8 17 -26 32 -41 39 -39 105 -39
183 1 56 28 59 28 104 14 85 -26 162 0 188 64 14 31 15 32 62 26 79 -9 139 33
149 106 5 37 7 39 30 30 40 -15 78 -10 113 14 42 28 81 102 73 139 -5 24 -2
28 17 28 38 0 101 42 121 82 21 41 25 99 8 130 -8 15 -8 19 0 14 6 -4 11 -2
11 4 0 6 5 8 11 4 8 -4 7 -9 -2 -15 -11 -7 -11 -9 -1 -9 7 0 11 -4 7 -9 -13
-22 15 -17 90 14 70 29 106 55 76 55 -6 0 -11 -4 -11 -10 0 -17 -26 -11 -46
11 -18 20 -18 20 11 14 18 -4 25 -3 18 2 -9 6 12 21 64 47 67 33 75 35 70 17
-4 -15 -1 -18 12 -14 13 5 13 3 -3 -15 -23 -26 -18 -27 28 -5 19 9 32 21 29
26 -3 6 -1 7 4 4 15 -9 273 151 273 169 0 3 -4 3 -9 -1 -5 -3 -12 -1 -15 3 -7
12 -58 3 -69 -12 -6 -8 -8 -8 -5 0 2 6 33 34 70 62 46 35 70 47 74 39 4 -7 4
-9 0 -5 -5 4 -14 2 -21 -5 -9 -9 -7 -15 9 -28 19 -16 22 -15 53 8 18 14 30 29
27 34 -3 5 -2 8 3 7 14 -4 63 34 56 45 -3 5 -1 7 4 4 6 -4 18 2 27 12 11 12
13 21 7 25 -5 4 -12 2 -16 -4 -10 -16 -25 -12 -19 5 4 8 1 15 -6 15 -6 0 -14
-9 -17 -20 -3 -11 -9 -18 -13 -15 -4 3 -13 -2 -20 -10 -7 -8 -16 -15 -20 -15
-4 0 26 32 67 72 59 58 76 69 83 58 9 -13 10 -13 10 0 0 13 1 13 11 0 9 -13
10 -13 6 0 -2 8 -9 14 -15 13 -6 -2 -9 4 -5 13 3 8 12 13 19 10 7 -3 16 -1 19
4 4 6 11 10 16 10 6 0 7 -5 3 -12 -4 -6 -3 -8 3 -5 6 4 13 16 16 27 4 17 3 19
-9 9 -8 -6 -14 -8 -14 -3 0 4 -7 -1 -16 -12 -8 -10 -14 -14 -12 -8 2 6 36 47
77 90 41 43 59 59 40 36 -61 -78 -61 -78 -39 -78 11 0 20 4 20 8 0 4 4 8 10 8
5 0 7 -8 3 -17 -3 -10 10 0 30 22 37 41 44 55 27 55 -5 0 -10 5 -10 11 0 8 4
8 13 0 10 -8 17 -7 25 1 18 18 14 31 -5 23 -15 -5 -16 -4 -5 6 16 17 15 26 -3
26 -8 0 -15 -5 -15 -10 0 -6 -3 -7 -6 -4 -10 10 17 38 29 30 5 -3 7 -1 3 5 -3
6 19 46 50 89 64 90 67 93 58 70 -4 -12 -1 -17 10 -17 9 0 16 -5 16 -11 0 -17
22 4 44 42 16 28 17 31 3 26 -9 -3 -19 -2 -22 4 -4 5 -3 9 2 8 19 -3 31 2 37
16 10 26 -35 11 -62 -21 l-25 -29 22 35 c11 19 28 34 37 33 11 -1 13 2 6 9
-12 12 105 258 123 258 5 0 19 13 29 28 l19 27 -28 -25 c-24 -22 -27 -22 -20
-5 5 11 32 90 61 175 96 284 129 510 121 845 -9 391 -86 703 -256 1039 -101
198 -268 431 -409 569 l-59 59 48 45 c85 79 139 217 139 353 0 168 -75 314
-192 373 -109 55 -221 58 -372 10 l-81 -26 -88 18 c-101 20 -149 17 -312 -20
-82 -19 -138 -25 -220 -25 -60 0 -115 4 -121 8 -11 7 -21 70 -27 173 -3 40
-14 77 -40 128 l-36 72 25 36 c27 40 31 81 10 121 -22 42 -56 56 -121 49 -41
-4 -55 -2 -55 7 0 7 -10 26 -21 41 -19 23 -28 26 -63 23 -32 -4 -47 0 -69 19
-32 26 -70 29 -107 9 -21 -12 -29 -12 -52 0 -40 21 -72 17 -98 -11z m248 -19
c14 -18 25 -21 60 -18 52 5 68 -7 84 -62 7 -22 31 -69 55 -104 60 -89 73 -153
20 -105 -12 11 -48 33 -79 48 -67 31 -77 51 -20 40 30 -5 35 -4 24 7 -7 7 -30
12 -52 12 -22 -1 -40 0 -40 2 0 2 19 17 42 34 51 37 41 39 -23 3 -27 -14 -52
-23 -56 -19 -4 3 9 22 27 41 18 19 31 37 28 40 -3 3 -14 -5 -24 -18 -22 -27
-74 -63 -74 -51 0 5 9 20 20 34 11 14 20 31 20 39 0 8 -16 -7 -35 -33 -42 -54
-57 -59 -44 -14 5 18 9 42 8 53 0 17 -27 -65 -29 -87 0 -4 -8 -12 -19 -17 -28
-16 -51 8 -67 70 -12 46 -13 48 -10 14 2 -22 7 -48 12 -59 14 -36 -20 -11 -53
40 -37 55 -43 53 -13 -6 27 -52 8 -52 -42 0 -44 47 -50 43 -12 -7 14 -19 24
-37 21 -40 -3 -2 -25 7 -50 21 -57 34 -72 33 -24 -1 46 -33 47 -43 2 -41 -19
1 -38 -2 -42 -5 -3 -4 8 -7 26 -7 44 0 32 -14 -42 -51 -34 -17 -70 -38 -79
-47 -16 -14 -18 -14 -18 2 0 21 35 91 66 132 13 17 31 50 39 74 23 65 33 73
81 66 35 -4 45 -2 64 19 27 29 74 33 101 9 15 -14 20 -13 53 4 42 23 69 19 94
-12z m-464 -86 c7 0 21 -6 32 -14 19 -14 18 -15 -6 -36 -23 -20 -34 -21 -72
-5 -27 11 -22 -12 7 -31 l24 -16 -19 -39 c-11 -21 -24 -39 -29 -39 -4 0 -21
18 -36 40 -25 36 -27 45 -19 78 7 28 18 41 44 55 19 9 41 15 48 12 8 -3 19 -5
26 -5z m774 -26 c13 -14 22 -38 22 -56 0 -34 -38 -100 -55 -95 -5 2 -18 18
-29 36 -18 32 -18 32 3 47 11 8 21 22 21 30 0 18 -9 18 -32 -3 -17 -15 -20
-15 -43 7 -32 30 -32 46 3 59 39 15 84 5 110 -25z m-465 -79 c32 -13 40 -13
73 1 24 10 53 14 77 11 79 -11 155 -121 159 -233 3 -53 -2 -72 -31 -133 -19
-39 -38 -71 -43 -71 -4 0 -10 11 -14 25 -4 14 -9 24 -11 21 -3 -3 0 -27 6 -53
10 -40 9 -55 -4 -86 -20 -49 -52 -64 -103 -49 -21 7 -47 21 -56 31 -17 18 -17
21 0 56 9 20 34 48 56 62 23 16 38 34 38 46 0 19 -1 19 -18 4 -25 -23 -158
-24 -190 -1 -20 14 -22 14 -22 -5 0 -11 14 -28 35 -41 94 -58 86 -140 -17
-156 -27 -5 -38 -1 -60 20 -32 33 -39 67 -26 129 5 26 7 53 5 60 -3 6 -6 1 -6
-13 -1 -26 -17 -58 -24 -50 -3 3 -20 34 -38 70 -56 110 -42 219 42 314 50 58
102 70 172 41z m-223 -73 c0 -4 -27 -32 -61 -61 -59 -52 -61 -53 -57 -25 4 41
118 123 118 86z m566 -17 c44 -26 64 -51 64 -80 0 -11 -19 0 -60 36 -81 70
-83 90 -4 44z m-703 -24 c-5 -21 -40 -57 -48 -50 -6 7 33 69 44 69 5 0 7 -9 4
-19z m816 -10 c29 -40 27 -60 -3 -32 -25 23 -41 61 -26 61 5 0 18 -13 29 -29z
m-709 -19 c0 -19 -88 -118 -96 -109 -12 11 9 50 47 88 44 44 49 46 49 21z
m622 -29 c34 -36 60 -94 42 -92 -10 0 -82 92 -91 114 -9 26 12 16 49 -22z
m-732 -13 c0 -20 -79 -115 -87 -106 -10 10 21 81 45 103 31 28 42 29 42 3z
m827 5 c21 -14 61 -101 51 -110 -9 -9 -76 70 -82 98 -7 31 0 34 31 12z m-727
-41 c0 -15 -68 -134 -76 -134 -2 0 -4 15 -4 33 0 22 11 49 30 75 31 44 50 53
50 26z m639 -29 c25 -36 31 -53 29 -82 -3 -32 -5 -35 -13 -18 -5 11 -21 40
-37 64 -27 44 -36 81 -20 81 5 0 23 -20 41 -45z m-739 -28 c0 -41 -93 -161
-98 -127 -5 32 17 89 50 126 38 43 48 43 48 1z m862 -36 c18 -28 28 -58 28
-80 l-1 -36 -25 30 c-54 64 -73 99 -67 128 5 23 8 26 21 15 8 -7 28 -33 44
-57z m-755 -5 c-3 -11 -16 -47 -30 -79 -17 -41 -26 -53 -31 -42 -14 38 1 98
36 142 15 18 31 4 25 -21z m630 -25 c19 -39 20 -111 2 -111 -5 0 -9 5 -9 11 0
6 -12 38 -26 70 -42 93 -12 121 33 30z m-725 -32 c4 -23 -3 -41 -25 -71 -16
-23 -41 -64 -56 -92 l-26 -51 -3 45 c-2 25 1 61 7 80 10 35 75 120 91 120 4 0
10 -14 12 -31z m112 -66 c-13 -29 -24 -65 -24 -78 0 -33 -18 -32 -26 0 -8 33
0 74 27 133 20 47 20 47 33 23 12 -21 10 -31 -10 -78z m735 18 c30 -46 49
-130 36 -151 -5 -8 -18 8 -36 40 -16 29 -40 68 -54 86 -25 33 -30 58 -19 89 6
15 8 14 25 -1 10 -9 32 -38 48 -63z m-151 -3 c21 -59 22 -68 9 -99 l-14 -34
-8 40 c-4 22 -18 60 -30 85 -18 35 -20 49 -11 63 17 27 29 15 54 -55z m-1713
8 c22 -7 54 -19 70 -26 l30 -11 -34 -28 -33 -27 -54 18 c-70 23 -178 25 -229
4 -98 -41 -157 -130 -176 -262 -31 -218 130 -438 300 -409 45 7 46 7 29 -30
-7 -15 -24 -28 -42 -33 -38 -10 -129 1 -134 16 -2 7 -10 12 -17 12 -26 0 -122
99 -153 158 -136 255 -38 560 201 627 61 18 182 13 242 -9z m3070 0 c99 -41
178 -132 209 -240 20 -69 20 -195 1 -271 -42 -159 -165 -284 -288 -292 -66 -5
-88 8 -106 58 -9 27 -9 28 9 19 25 -13 84 -13 131 2 62 18 114 70 156 156 37
74 38 79 38 187 0 97 -3 116 -26 165 -67 144 -206 198 -371 146 l-58 -19 -35
24 c-41 28 -43 35 -12 42 12 3 54 15 92 26 83 24 198 23 260 -3z m-1895 -28
c0 -12 -7 -49 -16 -82 -25 -96 -24 -93 -34 -76 -16 24 -11 76 11 135 20 54 39
65 39 23z m507 -88 c6 -53 -2 -100 -17 -100 -6 0 -10 17 -10 38 -1 20 -7 55
-15 77 -16 43 -19 87 -8 99 12 11 44 -62 50 -114z m-1183 78 c135 -32 267 -41
349 -25 l37 8 0 -60 c0 -33 5 -63 10 -66 6 -3 10 -22 10 -41 0 -38 33 -146 56
-181 10 -16 14 -53 14 -123 l0 -100 -27 6 c-112 24 -155 38 -208 64 -39 20
-51 23 -35 10 40 -32 160 -92 220 -111 l55 -17 3 -61 3 -61 -33 6 c-69 13
-156 47 -228 89 -121 71 -168 88 -237 89 -35 1 -63 3 -63 5 0 2 12 26 27 53
17 31 42 58 67 73 48 29 29 33 -30 6 -50 -23 -70 -49 -91 -121 -39 -134 -101
-213 -232 -294 -47 -29 -93 -56 -101 -60 -23 -12 47 50 131 115 67 50 119 110
119 133 0 4 -23 -18 -52 -49 -29 -32 -84 -81 -124 -110 -40 -30 -83 -69 -97
-87 -29 -38 -67 -144 -67 -188 0 -23 -4 -30 -19 -30 -36 0 -32 -19 4 -26 39
-7 55 -28 65 -87 l7 -38 -101 3 -101 3 -20 37 -19 36 22 64 c22 61 22 70 11
156 l-12 92 29 35 c16 20 43 54 61 76 18 22 37 56 43 77 13 49 13 167 -2 217
-21 73 -16 202 11 273 53 141 199 238 360 241 29 1 113 -13 185 -31z m2109 8
c118 -42 209 -130 239 -230 14 -47 16 -186 4 -326 -12 -133 5 -188 80 -269
l56 -61 -7 -110 c-6 -92 -5 -118 10 -156 18 -48 14 -87 -12 -116 -13 -15 -33
-18 -110 -18 l-93 0 0 34 c0 42 31 82 70 91 36 8 40 25 5 25 -22 0 -25 4 -25
40 0 53 -35 144 -73 186 -16 20 -59 56 -93 80 -35 25 -89 73 -120 107 -38 42
-51 52 -41 32 18 -36 82 -98 157 -152 30 -22 66 -53 80 -68 48 -52 -163 87
-221 146 -46 47 -63 73 -88 141 -56 149 -77 176 -156 192 -29 6 -28 5 7 -14
24 -13 49 -39 68 -73 37 -65 37 -70 0 -62 -47 10 -145 -21 -249 -80 -88 -51
-164 -81 -248 -99 l-32 -7 5 53 c8 74 7 73 55 87 58 17 178 75 209 101 22 19
19 18 -25 -3 -46 -23 -173 -57 -209 -57 -13 0 -16 15 -16 90 0 75 4 101 26
152 31 74 54 188 54 269 l0 59 28 -7 c15 -5 79 -8 142 -8 87 0 134 5 195 22
150 41 230 43 328 9z m-1568 -25 c6 -35 1 -48 -34 -106 -22 -37 -43 -81 -47
-98 -10 -47 -17 -55 -25 -27 -12 43 -10 99 6 138 18 42 77 132 87 132 3 0 9
-18 13 -39z m778 -17 c49 -69 69 -129 61 -180 -3 -24 -9 -44 -13 -44 -3 0 -14
22 -24 49 -9 27 -33 72 -52 100 -30 44 -35 57 -29 86 3 19 10 35 15 35 5 0 24
-21 42 -46z m-1903 -4 c25 -6 57 -15 72 -21 l27 -11 -29 -40 c-64 -88 -90
-213 -69 -330 l13 -72 -29 -20 c-16 -12 -57 -42 -91 -68 -35 -27 -67 -48 -72
-48 -18 0 -83 76 -107 124 -39 79 -50 154 -36 237 21 129 84 213 181 244 55
17 81 18 140 5z m3150 -26 c93 -51 140 -142 140 -272 0 -43 -7 -101 -15 -128
-17 -59 -80 -153 -115 -172 -24 -14 -30 -11 -116 54 l-91 68 10 50 c21 117 -9
276 -68 356 -14 19 -22 37 -17 42 4 4 32 14 62 23 74 20 147 13 210 -21z
m-1866 -78 c-8 -28 -14 -61 -14 -73 0 -26 -15 -31 -24 -7 -10 27 -7 79 10 135
l17 54 12 -29 c10 -23 10 -39 -1 -80z m437 32 c12 -58 5 -128 -11 -128 -6 0
-10 15 -11 33 0 17 -6 48 -12 67 -9 25 -10 45 -3 68 12 42 23 30 37 -40z
m-556 -5 c15 -35 14 -39 -3 -63 -30 -40 -44 -70 -68 -140 l-22 -65 -12 30
c-19 48 -7 119 35 201 21 41 42 74 46 74 5 0 16 -17 24 -37z m706 -10 c43 -69
64 -146 53 -202 -9 -46 -34 -69 -34 -32 0 37 -32 115 -66 163 l-34 46 17 36
c10 19 21 36 26 36 4 0 21 -21 38 -47z m-311 3 c58 -17 69 -35 48 -79 -13 -27
-26 -37 -62 -47 -95 -26 -186 12 -189 80 -2 33 0 34 40 41 24 5 51 13 60 18
10 6 27 8 38 5 11 -3 40 -12 65 -18z m-231 -18 c0 -13 -6 -54 -13 -93 -11 -63
-13 -68 -24 -48 -15 28 -15 61 0 118 13 47 38 62 37 23z m339 -3 c19 -41 24
-98 13 -127 -16 -42 -28 -34 -30 20 0 26 -5 61 -9 77 -15 53 5 76 26 30z
m-460 -50 c10 -22 7 -34 -23 -91 -30 -55 -35 -76 -35 -130 0 -35 -4 -64 -8
-64 -16 0 -42 60 -42 99 0 47 28 128 62 177 28 41 31 41 46 9z m631 -49 c12
-25 26 -71 31 -102 8 -50 7 -62 -12 -96 -26 -45 -36 -49 -30 -9 6 45 -14 124
-48 180 -29 50 -29 53 -14 77 15 22 18 23 34 9 9 -8 26 -35 39 -59z m-479 19
c5 -13 6 -47 3 -76 -5 -47 -8 -50 -20 -34 -15 22 -18 135 -3 135 6 0 15 -11
20 -25z m280 -35 c0 -49 -16 -100 -32 -100 -12 0 -10 118 3 141 16 31 29 12
29 -41z m171 -122 c13 -64 2 -118 -34 -162 l-24 -29 1 84 c1 72 -3 93 -26 143
l-28 58 21 30 22 30 28 -50 c16 -27 34 -74 40 -104z m-558 118 c15 -22 14 -28
-9 -86 -21 -52 -25 -75 -22 -142 l3 -80 -33 39 c-33 37 -34 40 -30 113 4 59
11 87 33 128 15 29 31 52 35 52 4 0 15 -11 23 -24z m151 -2 c17 -7 20 -61 7
-119 -7 -29 -7 -30 -19 -8 -11 20 -18 133 -8 133 2 0 11 -3 20 -6z m186 -58
c0 -39 -5 -60 -20 -77 l-19 -24 -1 71 c0 73 4 84 27 84 9 0 13 -16 13 -54z
m-119 -28 c-1 -38 2 -69 8 -73 8 -4 11 17 11 65 0 54 4 72 15 77 24 8 27 0 33
-75 4 -66 3 -70 -26 -103 -30 -33 -31 -34 -47 -14 -37 47 -41 60 -37 128 3 62
6 68 25 65 19 -3 20 -9 18 -70z m246 -4 c22 -49 25 -66 21 -138 -4 -71 -8 -88
-34 -124 -28 -41 -52 -56 -41 -28 32 84 31 178 -4 249 -18 39 -18 39 3 68 12
16 23 29 25 29 2 0 16 -25 30 -56z m-404 -35 c-22 -42 -26 -210 -4 -248 22
-40 -8 -20 -43 28 -29 41 -31 48 -30 130 0 69 5 94 23 130 l23 44 25 -25 c25
-25 25 -25 6 -59z m47 -1 c9 -15 13 -45 11 -88 -3 -87 13 -163 48 -232 16 -32
26 -58 21 -58 -5 0 -32 22 -59 49 -62 61 -87 132 -78 225 6 63 24 126 36 126
3 0 13 -10 21 -22z m295 -30 c39 -133 -6 -284 -102 -340 l-29 -17 36 72 c33
66 35 78 37 171 l1 101 -8 -93 c-7 -75 -15 -107 -44 -167 -19 -41 -40 -75 -46
-75 -6 0 -10 45 -10 128 l0 128 65 63 c36 35 65 68 65 72 0 5 4 9 10 9 5 0 16
-23 25 -52z m-217 -51 l42 -43 0 -139 0 -140 -29 51 c-15 28 -35 70 -44 93
-20 48 -35 221 -21 221 6 0 29 -19 52 -43z m458 -4 c-3 -27 -11 -102 -17 -167
-9 -98 -17 -138 -50 -223 -57 -150 -54 -255 8 -285 37 -17 68 -80 54 -106 -6
-11 -22 -22 -36 -24 -22 -5 -25 -2 -25 26 0 53 -19 105 -43 116 -21 10 -21 10
-4 -4 21 -16 33 -81 23 -121 -6 -22 -11 -26 -39 -23 -30 3 -32 6 -38 48 l-6
45 -1 -43 -2 -44 -42 7 c-24 4 -47 11 -52 15 -17 17 -11 87 9 111 l20 23 -25
-16 c-21 -14 -25 -23 -25 -67 1 -42 -2 -51 -16 -51 -55 0 -64 36 -23 96 l27
39 -5 180 -5 180 46 43 c110 103 165 161 214 225 28 37 54 67 56 67 2 0 1 -21
-3 -47z m-709 -83 c43 -47 106 -109 140 -138 l62 -53 0 -188 c0 -186 0 -189
25 -226 40 -58 32 -95 -20 -95 -9 0 -14 12 -15 38 0 20 -5 46 -10 57 -7 16 -8
14 -4 -10 3 -16 1 -43 -3 -60 -7 -23 -16 -31 -46 -38 -31 -8 -39 -6 -51 9 -13
18 -13 18 -12 -1 2 -16 -5 -21 -36 -23 -32 -3 -38 0 -47 24 -13 32 -4 82 18
107 20 22 7 36 -14 15 -10 -10 -18 -41 -21 -82 -6 -68 -10 -73 -44 -56 -40 22
-12 118 41 135 26 8 41 85 30 147 -5 26 -23 86 -40 134 -29 82 -35 122 -56
364 -5 60 -4 63 10 45 9 -11 51 -58 93 -105z m-459 -120 c23 -10 45 -26 48
-34 8 -21 -33 -94 -91 -161 -64 -73 -75 -94 -75 -137 0 -44 55 -134 98 -160
17 -11 32 -17 32 -14 0 4 -15 16 -32 27 l-33 21 47 -5 c61 -6 93 -27 108 -72
16 -49 8 -65 -35 -65 -29 0 -35 4 -36 23 l-2 22 -4 -22 c-4 -22 -9 -23 -108
-23 -121 0 -135 8 -135 75 0 31 -11 63 -37 112 -20 37 -46 85 -56 106 l-20 38
37 54 c27 39 40 70 45 111 9 62 18 73 86 105 51 24 109 24 163 -1z m1687 1
c55 -25 72 -48 78 -104 3 -31 18 -69 43 -109 l38 -62 -28 -50 c-70 -128 -79
-149 -84 -199 -2 -28 -9 -58 -14 -64 -7 -9 -43 -13 -114 -13 -91 0 -103 2
-109 19 -9 30 12 70 49 92 22 13 44 39 60 72 41 82 35 111 -44 206 -28 34 -63
87 -77 118 l-26 57 23 15 c63 43 141 51 205 22z m840 -383 c83 -101 182 -247
236 -345 23 -43 40 -63 53 -63 25 0 56 -28 56 -50 0 -9 -6 -24 -13 -34 -12
-16 -8 -32 25 -120 44 -113 89 -278 112 -412 21 -122 37 -355 30 -431 -6 -60
-5 -64 20 -84 40 -32 35 -83 -10 -107 -17 -9 -23 -25 -29 -70 -4 -33 -17 -108
-30 -168 -21 -100 -22 -111 -7 -127 21 -24 5 -71 -25 -75 -17 -3 -26 -18 -44
-70 -27 -85 -137 -316 -178 -376 -27 -38 -31 -52 -25 -81 8 -43 -8 -65 -47
-65 -18 0 -30 -6 -34 -19 -6 -21 -45 -59 -45 -44 0 6 9 22 20 35 14 19 18 34
14 60 -5 29 -2 38 17 52 13 9 31 16 40 16 44 0 260 473 230 503 -26 26 -6 87
29 87 12 0 21 25 38 108 33 162 38 227 18 235 -41 16 -37 99 5 112 25 8 33 72
24 213 -13 234 -52 436 -119 627 -54 155 -63 173 -88 177 -12 2 -29 15 -37 30
-13 22 -13 30 -2 51 12 22 8 32 -49 128 -67 114 -144 220 -227 316 -51 59 -64
83 -43 83 5 0 43 -42 85 -92z m-3527 -15 c-60 -73 -64 -81 -60 -120 3 -36 1
-44 -22 -58 -14 -10 -32 -15 -40 -12 -34 13 -195 -300 -262 -508 l-41 -129 20
-27 c26 -37 17 -77 -23 -92 -25 -10 -30 -18 -40 -75 -27 -154 -32 -245 -27
-447 7 -269 44 -470 124 -686 21 -56 29 -69 47 -69 42 0 60 -46 36 -91 -9 -15
-2 -37 36 -109 45 -89 149 -250 220 -342 20 -27 31 -48 26 -48 -25 0 -198 253
-267 391 -38 74 -48 87 -74 92 -36 7 -51 45 -31 81 10 20 7 37 -19 112 -46
134 -88 318 -107 466 -20 163 -15 494 10 630 16 86 16 88 -4 108 -11 11 -20
28 -20 38 0 26 29 62 50 62 14 0 22 14 35 58 46 167 147 396 237 540 30 47 38
66 29 75 -30 30 18 105 60 92 12 -4 34 16 85 80 41 52 71 82 77 76 6 -6 -16
-39 -55 -88z m489 -79 c51 -32 68 -124 23 -124 -17 0 -20 7 -20 39 0 24 -8 48
-21 65 -27 35 -45 34 -19 -2 11 -15 23 -44 27 -65 l6 -37 -42 0 c-40 0 -41 1
-41 34 0 19 -11 49 -24 69 l-25 36 57 -1 c31 0 67 -7 79 -14z m2051 -2 c-33
-20 -62 -75 -53 -102 6 -17 2 -20 -29 -20 -37 0 -57 21 -49 50 18 61 57 89
123 89 l35 0 -27 -17z m601 -8 c-17 -19 -24 -37 -24 -70 l0 -45 -40 3 c-47 4
-54 20 -29 73 18 39 55 64 93 65 l24 0 -24 -26z m-94 -4 c-9 -10 -20 -40 -22
-65 -5 -35 -10 -45 -24 -45 -26 0 -34 41 -15 78 17 32 41 51 65 52 11 0 10 -5
-4 -20z m-1117 -136 c90 -20 205 -76 288 -140 114 -87 193 -202 247 -358 28
-83 31 -102 31 -221 1 -150 -13 -214 -74 -340 -83 -172 -265 -325 -450 -378
-196 -56 -372 -39 -550 54 -192 99 -317 258 -370 469 -31 121 -25 319 13 435
38 114 90 198 182 291 176 177 426 246 683 188z m-523 -31 c-27 -14 -64 -36
-81 -49 -30 -23 -36 -24 -235 -24 -112 0 -376 3 -586 7 l-383 6 0 44 0 43 668
0 667 -1 -50 -26z m1985 -21 l0 -48 -584 -3 -584 -3 -68 47 c-38 26 -71 49
-73 51 -2 2 291 4 652 4 l657 0 0 -48z m-2217 -156 c-21 -24 -54 -71 -73 -105
-19 -33 -43 -75 -52 -91 l-18 -30 -222 0 c-123 0 -328 3 -455 7 l-233 6 0 129
0 128 546 0 546 0 -39 -44z m2219 28 c2 -9 2 -69 0 -133 l-3 -116 -454 -4
-453 -4 -36 71 c-19 38 -58 100 -85 136 l-50 66 539 0 c489 0 539 -1 542 -16z
m-2455 -344 c18 -10 40 -31 50 -47 17 -26 18 -71 18 -778 0 -707 -1 -752 -18
-778 -10 -16 -32 -37 -50 -47 -30 -19 -53 -20 -372 -20 -374 0 -384 1 -429 63
-21 28 -21 38 -24 760 -2 403 0 746 3 764 6 35 52 84 87 95 13 3 176 6 363 7
320 1 342 0 372 -19z m2227 -200 c236 -60 376 -238 376 -475 0 -121 -28 -206
-124 -385 -41 -75 -47 -145 -19 -204 15 -32 15 -38 2 -53 -125 -150 -225 -244
-354 -330 -77 -52 -288 -174 -292 -169 -2 2 13 36 33 75 32 64 36 78 32 131
-5 73 -45 141 -107 185 -37 26 -53 30 -124 33 -67 3 -86 8 -106 25 -21 20 -23
27 -16 87 3 36 7 79 8 95 l2 30 88 3 c77 2 88 5 85 20 -3 14 -18 17 -91 20
l-87 3 0 29 c0 55 -15 76 -64 89 -35 9 -47 17 -52 35 -7 29 3 49 74 149 47 66
60 77 81 75 22 -3 27 -10 33 -47 9 -53 30 -78 78 -92 30 -9 43 -8 68 5 33 17
62 61 62 94 0 22 15 23 374 36 l129 5 30 -30 c26 -26 29 -35 24 -71 -3 -22
-21 -64 -40 -92 -18 -28 -41 -63 -51 -78 -12 -20 -25 -28 -45 -28 -34 0 -44
-9 -30 -27 21 -24 75 -16 102 17 95 112 128 223 87 288 -37 59 -59 63 -333 55
l-244 -6 -6 25 c-24 96 -166 113 -198 24 -10 -28 -18 -36 -34 -34 -18 3 -20
10 -19 86 1 73 5 90 38 156 59 120 175 213 313 251 75 21 227 18 317 -5z
m-484 -450 c54 -54 28 -190 -37 -190 -7 0 -25 11 -38 25 -21 20 -25 34 -25 85
0 47 4 64 20 80 25 25 55 25 80 0z m-1175 -335 c0 -6 -41 -11 -97 -13 l-98 -3
0 -105 c0 -80 -3 -105 -12 -102 -17 6 -23 190 -8 218 10 19 19 20 113 18 59
-2 102 -7 102 -13z m688 2 c15 -10 17 -27 15 -117 -4 -133 -21 -135 -28 -3
l-5 98 -97 3 c-90 2 -125 14 -80 25 40 11 179 7 195 -6z m-318 -88 c70 -27 82
-36 68 -50 -8 -8 -17 -7 -34 5 -42 27 -140 47 -194 40 -103 -13 -196 -83 -242
-181 -19 -42 -43 -165 -43 -230 0 -7 -4 -13 -10 -13 -16 0 -12 140 6 201 8 30
31 77 51 106 92 136 240 181 398 122z m-6 -63 c17 -9 31 -21 31 -26 0 -13 -2
-13 -67 6 -80 23 -150 15 -214 -25 -32 -20 -56 -28 -61 -23 -12 12 45 57 98
77 49 19 169 13 213 -9z m143 -38 c30 -32 59 -83 72 -125 13 -42 -20 -25 -40
19 -10 24 -34 62 -51 85 -18 24 -33 45 -33 48 0 14 26 1 52 -27z m-242 -13 c0
-10 -10 -15 -27 -15 -43 -1 -108 -34 -136 -72 -32 -41 -46 -102 -47 -191 0
-81 -19 -127 -66 -163 -51 -39 -63 -19 -15 27 43 42 46 52 56 184 8 97 31 153
79 191 60 48 156 72 156 39z m108 -25 c86 -62 126 -183 104 -313 -15 -83 -83
-231 -136 -291 -55 -63 -61 -33 -7 37 86 114 130 263 112 375 -13 84 -50 145
-106 178 -25 14 -42 30 -39 35 9 16 30 10 72 -21z m107 -22 c36 -56 65 -154
65 -223 0 -100 -56 -263 -116 -342 -32 -42 -53 -33 -24 10 70 105 117 267 106
369 -7 69 -36 147 -70 193 -30 39 -31 45 -11 45 8 0 30 -24 50 -52z m-178 -9
c58 -22 113 -99 113 -159 0 -47 -17 -35 -34 24 -26 88 -96 131 -171 106 -52
-17 -84 -65 -91 -138 -5 -46 -11 -62 -22 -62 -12 0 -14 11 -9 60 7 67 23 104
59 137 43 41 101 53 155 32z m-267 -14 c0 -2 -5 -16 -12 -30 -18 -40 -43 -29
-27 13 7 18 39 33 39 17z m280 -63 c68 -69 57 -222 -26 -353 -52 -83 -164
-187 -164 -153 0 4 26 35 59 69 71 76 115 151 136 231 32 123 -21 234 -94 195
-29 -16 -38 -37 -46 -109 -4 -34 -11 -64 -15 -67 -15 -9 -21 28 -14 89 6 51
13 67 40 94 42 42 84 43 124 4z m1710 -292 c-20 -237 -52 -416 -111 -615 l-21
-70 -141 -74 c-161 -84 -398 -218 -471 -267 -32 -21 -64 -57 -96 -106 -26 -40
-66 -93 -88 -117 l-41 -44 -38 29 c-21 15 -103 80 -182 144 -79 63 -202 158
-273 212 -152 113 -188 145 -188 170 0 23 -1 23 -62 -8 -28 -14 -75 -28 -105
-31 -51 -6 -55 -8 -74 -44 -72 -141 -258 -223 -338 -148 -31 29 -26 49 33 125
29 38 73 105 98 149 43 79 45 81 132 128 48 26 116 67 149 91 103 73 122 79
198 72 73 -7 391 -70 434 -86 36 -14 135 26 398 158 222 111 424 239 549 346
77 66 195 195 226 249 17 28 17 28 20 -50 2 -43 -1 -139 -8 -213z m-2026 233
c-2 -21 -5 -64 -8 -95 -3 -37 -12 -69 -26 -88 -23 -32 -50 -40 -50 -15 0 8 5
15 11 15 17 0 37 61 44 143 5 52 11 77 20 77 9 0 12 -12 9 -37z m602 -19 c16
-107 -30 -323 -62 -292 -2 3 5 40 16 84 14 52 20 106 20 159 -2 96 -2 95 9 95
6 0 13 -21 17 -46z m-311 16 c23 -38 -11 -220 -41 -220 -17 0 -17 -2 1 50 8
23 15 73 15 111 0 63 9 85 25 59z m-55 -69 c0 -85 -30 -164 -50 -132 -5 10 -3
25 6 42 8 16 14 48 14 73 0 49 7 76 21 76 5 0 9 -26 9 -59z m190 -22 c0 -30
-35 -139 -62 -196 -33 -67 -130 -183 -154 -183 -22 0 -18 8 40 71 68 76 112
157 132 248 11 46 21 71 30 71 8 0 14 -5 14 -11z m-310 -57 c0 -15 -10 -48
-22 -72 -27 -52 -107 -118 -119 -99 -5 8 7 22 32 41 38 28 70 78 83 131 8 35
26 35 26 -1z m60 -66 c0 -30 -126 -166 -153 -166 -19 0 -3 31 27 53 19 15 50
49 71 77 37 50 55 62 55 36z m40 -58 c0 -29 -126 -156 -141 -141 -8 8 4 25 41
59 28 26 59 60 68 76 20 34 32 36 32 6z m-1648 -24 c42 -35 113 -69 184 -89
79 -22 319 -31 409 -16 l68 12 36 -34 c57 -55 244 -199 306 -236 73 -44 146
-63 210 -55 28 3 113 21 190 40 135 33 188 37 224 15 16 -11 -46 -55 -163
-116 -80 -42 -81 -43 -135 -136 -29 -52 -75 -121 -102 -154 -55 -67 -62 -105
-29 -147 23 -30 97 -53 146 -45 82 14 199 97 239 171 13 24 29 39 45 42 14 2
52 13 85 23 l59 20 36 -32 c19 -18 105 -85 190 -149 85 -64 229 -177 319 -250
187 -151 212 -183 192 -248 -15 -50 -53 -80 -101 -80 -31 0 -60 15 -161 86
-68 48 -131 93 -140 100 -20 18 -39 18 -39 0 0 -7 55 -52 123 -99 160 -112
171 -124 164 -179 -7 -53 -61 -108 -105 -108 -30 0 -173 81 -270 152 -32 24
-60 37 -69 34 -24 -10 -1 -31 125 -113 92 -60 112 -78 112 -98 0 -56 -47 -105
-101 -105 -26 0 -131 52 -219 109 -67 43 -75 47 -85 32 -7 -12 36 -44 133
-101 79 -46 84 -59 39 -107 -30 -33 -115 -32 -185 3 -52 26 -52 26 -52 74 0
51 -24 94 -60 105 -16 5 -18 13 -14 53 3 29 0 57 -8 72 -17 31 -74 70 -103 70
-18 0 -24 7 -28 34 -8 48 -35 86 -74 102 -44 19 -72 18 -118 -6 -48 -25 -45
-25 -45 3 0 49 -60 97 -120 97 -40 0 -101 -32 -138 -71 l-30 -32 -34 34 c-19
19 -98 102 -175 184 -101 108 -160 161 -207 190 -37 22 -147 93 -246 157 -173
113 -179 119 -190 160 -6 24 -18 66 -26 93 -24 87 -62 276 -78 390 -9 61 -18
125 -21 143 -7 39 -2 40 37 6z m1240 -101 l3 -98 93 -3 c63 -2 92 -6 90 -14
-4 -11 -183 -12 -200 -2 -12 7 -10 214 2 214 5 0 11 -44 12 -97z m888 -19 l0
-104 -105 0 c-63 0 -105 4 -105 10 0 6 38 10 95 10 l95 0 0 101 c0 64 4 98 10
94 6 -3 10 -52 10 -111z m-170 58 c0 -13 -12 -22 -22 -16 -10 6 -1 24 13 24 5
0 9 -4 9 -8z m1853 -229 c-3 -7 -6 -13 -8 -13 -2 0 -5 6 -8 13 -3 8 1 14 8 14
7 0 11 -6 8 -14z m-553 -567 c0 -2 -8 -10 -17 -17 -16 -13 -17 -12 -4 4 13 16
21 21 21 13z m-110 -136 c0 -5 -5 -10 -11 -10 -5 0 -7 5 -4 10 3 6 8 10 11 10
2 0 4 -4 4 -10z m-88 -17 c-6 -2 -9 -10 -6 -15 4 -7 2 -8 -5 -4 -13 9 -5 26
12 25 9 0 8 -2 -1 -6z m-52 -41 c-8 -3 -24 -9 -35 -14 -14 -7 -13 -4 5 11 13
10 29 17 34 13 6 -3 4 -8 -4 -10z m50 -11 c-13 -9 -29 -16 -37 -17 -12 -2 -11
1 2 16 9 10 26 18 37 17 19 -1 19 -2 -2 -16z m-185 -61 c-3 -5 -12 -10 -18
-10 -7 0 -6 4 3 10 19 12 23 12 15 0z m-1726 -171 c37 -13 51 -35 51 -83 0
-29 -11 -48 -60 -105 -70 -81 -111 -101 -158 -77 -36 19 -56 65 -48 110 9 48
67 120 118 145 50 24 54 25 97 10z m241 -84 c34 -18 55 -71 41 -106 -14 -37
-108 -166 -160 -220 -42 -43 -52 -49 -90 -49 -31 0 -48 6 -66 24 -58 58 -40
121 70 248 101 117 140 137 205 103z m168 -171 c39 -45 30 -79 -59 -211 -27
-39 -59 -79 -71 -87 -62 -44 -153 15 -134 87 6 27 138 214 164 235 24 19 73 7
100 -24z m76 -173 c13 -15 17 -32 14 -69 -3 -43 0 -52 22 -70 l25 -21 -45 -20
c-25 -11 -60 -21 -79 -21 -42 0 -81 33 -81 69 0 47 76 151 110 151 9 0 25 -9
34 -19z"/>
<path d="M5163 8855 c0 -33 2 -45 4 -27 2 18 2 45 0 60 -2 15 -4 0 -4 -33z"/>
<path d="M5291 8617 c-39 -20 -45 -38 -34 -98 l10 -54 2 42 c1 40 3 43 41 53
49 13 70 44 41 60 -25 13 -31 13 -60 -3z m57 -14 c5 -16 -22 -27 -44 -19 -13
5 -14 9 -4 22 15 17 41 15 48 -3z"/>
<path d="M4965 8611 c-7 -13 21 -39 60 -56 31 -12 34 -18 37 -62 l3 -48 9 68
c7 59 6 70 -9 87 -10 11 -28 20 -39 19 -12 0 -15 -3 -8 -6 19 -7 14 -33 -7
-33 -25 0 -47 26 -29 33 9 4 9 6 1 6 -6 1 -14 -3 -18 -8z"/>
<path d="M4890 7206 c0 -2 11 -6 25 -8 13 -3 22 -1 19 3 -5 9 -44 13 -44 5z"/>
<path d="M4162 7447 c-12 -23 -27 -50 -34 -59 -10 -14 -6 -31 27 -97 47 -97
59 -101 16 -6 -17 37 -31 74 -31 82 0 7 12 36 26 64 15 27 25 52 22 54 -2 3
-14 -14 -26 -38z"/>
<path d="M6130 7509 c0 -8 13 -39 30 -69 16 -30 29 -61 30 -68 0 -8 -13 -44
-30 -82 -37 -84 -39 -113 -4 -45 57 110 57 114 13 200 -21 43 -39 72 -39 64z"/>
<path d="M5108 6948 c-4 -31 -48 -41 -69 -16 -13 17 -22 19 -60 11 -37 -7 -44
-13 -47 -34 -4 -35 -47 -56 -71 -35 -15 13 -21 12 -59 -12 -39 -25 -42 -30
-37 -59 5 -25 2 -34 -14 -43 -12 -6 -31 -8 -43 -5 -18 4 -29 -3 -52 -31 -25
-31 -27 -40 -17 -56 7 -11 9 -28 6 -39 -6 -19 -11 -21 -49 -23 -12 -1 -24 -16
-36 -46 -16 -40 -16 -47 -3 -62 21 -23 13 -62 -13 -66 -24 -3 -34 -27 -34 -83
0 -28 5 -38 20 -42 28 -7 28 -57 -1 -64 -19 -5 -20 -11 -14 -52 9 -56 11 -61
36 -61 11 0 24 -11 31 -26 11 -23 10 -28 -7 -40 -18 -13 -18 -17 -4 -57 12
-31 22 -43 40 -45 38 -6 52 -23 46 -57 -4 -23 2 -38 23 -63 25 -30 31 -32 50
-22 28 15 53 -4 47 -38 -4 -19 3 -29 35 -49 34 -23 42 -24 62 -14 31 17 68 -1
64 -31 -2 -17 6 -23 45 -35 46 -13 49 -13 66 8 22 27 58 18 67 -17 5 -21 12
-24 50 -24 38 0 46 4 56 25 16 35 47 43 67 16 15 -19 19 -20 66 -8 42 10 50
16 50 36 0 34 27 49 59 32 22 -12 29 -11 61 9 29 18 35 27 31 45 -8 30 15 48
51 41 23 -5 34 0 56 23 23 25 27 36 22 64 -7 38 12 62 43 53 16 -5 23 3 40 41
19 44 19 50 5 65 -23 25 -10 68 21 68 19 0 24 7 30 38 9 55 8 60 -14 67 -13 4
-20 15 -20 30 0 14 9 29 20 35 33 18 24 120 -11 120 -27 0 -37 47 -13 65 18
13 18 14 -2 62 -14 34 -26 49 -42 51 -12 2 -29 13 -37 25 -13 18 -13 23 0 37
12 13 10 21 -18 57 -26 35 -36 42 -58 37 -35 -7 -65 26 -50 54 10 18 5 24 -38
50 -44 28 -50 29 -64 14 -23 -22 -67 -2 -67 32 0 21 -7 26 -52 36 -45 11 -53
11 -63 -4 -19 -26 -64 -21 -75 9 -8 22 -15 25 -59 25 -44 0 -50 -3 -53 -22z
m71 -295 c1 -183 -1 -213 -14 -213 -13 0 -15 26 -15 173 0 94 3 204 7 242 12
116 20 34 22 -202z m-120 55 c63 -194 82 -278 62 -278 -16 0 -26 29 -76 220
-47 178 -60 240 -52 240 4 0 33 -82 66 -182z m248 0 c-49 -188 -78 -270 -96
-276 -9 -3 -10 6 -5 34 13 76 132 430 141 420 2 -2 -16 -82 -40 -178z m-386
-9 c82 -115 169 -256 169 -276 0 -41 -47 20 -167 217 -131 215 -132 239 -2 59z
m596 114 c-43 -78 -178 -292 -225 -356 -45 -63 -64 -48 -24 19 62 105 234 344
248 344 3 0 3 -3 1 -7z m-667 -232 c120 -95 211 -181 204 -193 -3 -4 -24 6
-47 24 -66 51 -249 212 -282 249 l-30 33 30 -19 c17 -10 73 -52 125 -94z m755
63 c-88 -77 -262 -222 -292 -242 -45 -32 -49 -12 -5 30 83 78 306 248 326 248
6 0 -7 -16 -29 -36z m-860 -151 c148 -58 285 -125 285 -140 0 -7 -2 -13 -5
-13 -12 0 -260 112 -340 154 -101 53 -75 52 60 -1z m930 5 c-79 -41 -212 -99
-302 -131 -55 -20 -73 -23 -73 -13 0 15 97 59 286 130 139 53 174 58 89 14z
m-438 -105 c12 -8 29 -34 39 -58 20 -52 7 -103 -33 -135 -57 -45 -147 -29
-178 31 -60 115 65 231 172 162z m-442 -38 c218 -27 225 -29 225 -46 0 -9 -22
-10 -81 -5 -149 12 -447 74 -364 76 11 0 110 -11 220 -25z m910 -10 c-165 -37
-395 -58 -395 -36 0 20 211 47 375 48 l80 1 -60 -13z m-685 -75 c0 -6 -11 -15
-26 -20 -30 -12 -357 -60 -399 -59 -28 0 -29 1 -7 9 18 8 260 56 362 73 48 8
70 7 70 -3z m545 -35 c272 -56 254 -68 -35 -24 -171 26 -220 38 -220 55 0 18
44 12 255 -31z m-541 -23 c-28 -21 -398 -200 -404 -195 -3 2 6 13 20 23 32 24
246 138 324 172 61 27 95 27 60 0z m478 -70 c175 -88 233 -122 210 -122 -35 0
-422 185 -422 202 0 21 53 1 212 -80z m-442 50 c0 -19 -329 -316 -339 -306 -6
6 188 202 262 265 55 47 77 58 77 41z m276 -34 c77 -64 284 -262 284 -271 0
-11 -109 75 -242 191 -60 52 -108 100 -108 108 0 22 11 17 66 -28z m-246 -1
c0 -27 -224 -377 -241 -377 -10 0 107 209 174 313 49 74 67 91 67 64z m217
-64 c81 -126 185 -304 181 -309 -7 -7 -30 23 -115 151 -70 105 -133 214 -133
230 0 20 25 -6 67 -72z m-183 -6 c-35 -149 -110 -384 -121 -374 -6 7 83 367
101 412 24 57 36 33 20 -38z m59 1 c6 -71 -1 -325 -11 -378 -5 -28 -7 -18 -13
50 -9 111 -11 319 -3 359 10 49 21 37 27 -31z m69 -34 c29 -91 89 -346 83
-352 -5 -6 -62 161 -93 273 -40 144 -45 178 -30 173 7 -3 25 -45 40 -94z"/>
<path d="M5070 6277 c0 -41 50 -91 66 -65 4 6 3 8 -2 5 -15 -9 -32 6 -48 43
-9 21 -15 28 -16 17z"/>
<path d="M5238 6248 c-10 -10 -15 -18 -10 -18 17 -1 -45 -29 -68 -31 -21 -1
-22 -2 -4 -6 30 -6 71 13 90 42 20 31 16 39 -8 13z"/>
<path d="M3767 6433 c-15 -14 -7 -43 12 -43 26 0 36 17 21 35 -14 16 -23 19
-33 8z"/>
<path d="M3857 6424 c-19 -20 4 -24 124 -24 100 0 130 3 127 13 -5 13 -238 24
-251 11z"/>
<path d="M3570 5691 l0 -631 402 0 401 0 -6 422 c-4 232 -7 514 -7 627 l0 206
-395 3 -395 4 0 -631z"/>
<path d="M3915 5005 c-62 -61 3 -162 85 -134 17 6 37 24 46 40 41 81 -67 159
-131 94z"/>
<path d="M6030 5475 c0 -3 12 -23 26 -44 14 -22 28 -60 32 -85 9 -62 26 -63
30 -3 2 35 -2 57 -18 83 -23 37 -70 70 -70 49z"/>
<path d="M6506 5293 c-29 -59 -48 -76 -110 -103 -57 -26 -54 -35 9 -26 56 9
111 54 137 114 18 40 17 62 -2 62 -6 0 -21 -21 -34 -47z"/>
<path d="M2531 5694 c0 -11 3 -14 6 -6 3 7 2 16 -1 19 -3 4 -6 -2 -5 -13z"/>
<path d="M2370 5692 c0 -19 46 -66 54 -54 3 6 -3 13 -14 17 -11 4 -18 10 -15
15 3 4 -2 13 -10 20 -10 8 -15 9 -15 2z"/>
<path d="M2505 5670 c4 -6 1 -19 -6 -28 -11 -13 -9 -13 8 2 22 18 22 36 2 36
-6 0 -7 -5 -4 -10z"/>
<path d="M2462 5585 c0 -16 2 -22 5 -12 2 9 2 23 0 30 -3 6 -5 -1 -5 -18z"/>
<path d="M2482 5420 c0 -14 3 -34 8 -45 l9 -20 -1 20 c0 11 -4 31 -8 45 l-8
25 0 -25z"/>
<path d="M2501 5324 c-1 -33 45 -227 61 -257 5 -10 16 -44 24 -75 17 -66 113
-295 126 -300 4 -2 8 -10 8 -18 0 -8 5 -14 10 -14 6 0 1 18 -10 40 -77 152
-166 411 -209 615 -8 37 -9 38 -10 9z"/>
<path d="M7767 5083 c-4 -3 -7 -13 -7 -21 0 -18 13 -7 16 13 2 17 1 18 -9 8z"/>
<path d="M2806 5057 c3 -8 -2 -21 -10 -30 -22 -22 -20 -30 4 -17 21 11 27 44
10 55 -5 3 -7 0 -4 -8z"/>
<path d="M2780 5039 c0 -5 5 -7 10 -4 6 3 10 8 10 11 0 2 -4 4 -10 4 -5 0 -10
-5 -10 -11z"/>
<path d="M2790 4983 c0 -4 5 -15 10 -23 8 -13 10 -13 10 2 0 9 -4 20 -10 23
-5 3 -10 3 -10 -2z"/>
<path d="M7445 4874 c-17 -13 -18 -16 -5 -24 14 -9 7 -14 -12 -11 -12 2 -9
-13 7 -35 13 -18 14 -18 9 6 -5 20 -3 22 5 10 10 -13 11 -13 12 0 1 8 1 21 0
29 -2 7 1 11 6 8 5 -3 9 3 9 14 0 23 -5 23 -31 3z"/>
<path d="M7623 4739 c-2 -23 3 -25 10 -4 4 8 3 16 -1 19 -4 3 -9 -4 -9 -15z"/>
<path d="M2900 4728 c0 -5 7 -11 15 -14 8 -4 12 -11 8 -18 -3 -6 -2 -8 2 -3
18 16 15 43 -5 43 -11 0 -20 -4 -20 -8z"/>
<path d="M2944 4692 c-10 -15 -7 -26 11 -55 25 -43 41 -60 32 -35 -3 9 0 19 8
22 11 4 10 13 -8 45 -25 46 -28 48 -43 23z m26 -33 c0 -11 -4 -17 -10 -14 -5
3 -10 15 -10 26 0 11 5 17 10 14 6 -3 10 -15 10 -26z"/>
<path d="M7595 4689 c-10 -30 0 -33 13 -4 6 14 7 25 2 25 -5 0 -12 -9 -15 -21z"/>
<path d="M7570 4635 c-7 -9 -10 -18 -7 -21 3 -3 10 4 17 15 13 25 8 27 -10 6z"/>
<path d="M2800 4616 c0 -16 -16 -21 -54 -17 -10 0 -26 -4 -34 -11 -13 -11 -15
-10 -9 11 4 18 3 21 -6 12 -14 -14 4 -67 21 -63 7 1 11 -4 10 -10 -2 -8 11
-14 33 -16 30 -3 40 -9 58 -43 12 -21 27 -39 32 -39 6 0 8 -4 5 -9 -3 -5 1
-14 9 -21 8 -7 15 -17 15 -22 0 -15 80 -128 91 -128 5 0 2 11 -7 25 -9 14 -20
25 -25 25 -5 0 -8 3 -7 8 3 8 -52 93 -67 104 -5 4 -7 8 -3 8 4 0 -6 22 -23 50
-24 39 -28 53 -20 69 15 28 14 56 -4 71 -12 10 -15 10 -15 -4z"/>
<path d="M7511 4524 c0 -11 3 -14 6 -6 3 7 2 16 -1 19 -3 4 -6 -2 -5 -13z"/>
<path d="M3030 4505 c0 -2 6 -8 13 -14 10 -8 14 -7 14 2 0 8 -6 14 -14 14 -7
0 -13 -1 -13 -2z"/>
<path d="M3079 4486 c6 -7 8 -23 5 -37 -5 -23 -5 -23 7 -4 20 30 19 43 -3 48
-14 4 -17 2 -9 -7z"/>
<path d="M7480 4470 c-6 -11 -8 -20 -6 -20 3 0 10 9 16 20 6 11 8 20 6 20 -3
0 -10 -9 -16 -20z"/>
<path d="M7445 4430 c-3 -6 1 -7 9 -4 18 7 21 14 7 14 -6 0 -13 -4 -16 -10z"/>
<path d="M3135 4400 c3 -5 8 -10 11 -10 2 0 4 5 4 10 0 6 -5 10 -11 10 -5 0
-7 -4 -4 -10z"/>
<path d="M7370 4310 c-8 -5 -12 -12 -9 -15 4 -3 12 1 19 10 14 17 11 19 -10 5z"/>
<path d="M3236 4278 c3 -5 10 -6 15 -3 13 9 11 12 -6 12 -8 0 -12 -4 -9 -9z"/>
<path d="M3262 4255 c2 -11 10 -19 17 -17 7 1 10 -2 6 -7 -5 -9 33 -37 40 -29
1 2 -13 19 -32 38 -27 28 -34 31 -31 15z"/>
<path d="M3220 4252 c0 -4 24 -32 54 -61 38 -37 56 -49 61 -40 6 8 4 10 -5 4
-9 -6 -12 -4 -8 7 6 14 -28 45 -45 40 -5 -1 -5 2 -2 8 4 7 -2 14 -14 17 -11 3
-19 9 -16 13 3 4 -2 10 -10 14 -8 3 -15 2 -15 -2z"/>
<path d="M3013 4193 c25 -32 53 -67 64 -78 10 -11 29 -34 43 -50 14 -17 30
-33 35 -35 6 -3 9 -8 8 -12 -2 -5 0 -7 5 -5 4 1 8 -2 9 -6 2 -17 56 -66 65
-61 5 3 -28 45 -74 92 -46 48 -105 115 -132 150 -27 34 -53 62 -58 62 -5 0 11
-26 35 -57z m198 -210 c13 -16 12 -17 -3 -4 -17 13 -22 21 -14 21 2 0 10 -8
17 -17z"/>
<path d="M7217 4205 c3 -9 8 -13 11 -10 3 3 12 -9 20 -27 8 -18 16 -28 19 -21
2 6 -3 23 -11 36 -9 13 -13 27 -9 30 3 4 -3 7 -15 7 -15 0 -20 -4 -15 -15z"/>
<path d="M7260 4201 c0 -6 4 -13 10 -16 6 -3 7 1 4 9 -7 18 -14 21 -14 7z"/>
<path d="M7208 4169 c14 -47 28 -60 70 -66 34 -5 44 -2 67 21 25 25 26 46 3
46 -6 0 -8 -9 -5 -19 7 -27 -41 -45 -68 -25 -10 7 -22 11 -26 8 -5 -3 -9 1 -9
9 0 8 -9 22 -19 31 -19 17 -20 17 -13 -5z"/>
<path d="M7280 4152 c0 -13 20 -37 20 -25 0 7 7 10 17 6 10 -4 14 -2 10 4 -8
12 -47 24 -47 15z"/>
<path d="M7187 4083 c-4 -3 -7 -11 -7 -17 0 -6 5 -5 12 2 6 6 9 14 7 17 -3 3
-9 2 -12 -2z"/>
<path d="M7147 4042 c-15 -16 -15 -19 -2 -19 8 0 13 3 10 5 -3 3 0 11 6 19 17
20 5 16 -14 -5z"/>
<path d="M3526 3997 c3 -8 11 -14 19 -14 20 0 19 4 -5 17 -15 8 -18 8 -14 -3z"/>
<path d="M3489 3977 c7 -7 16 -12 22 -12 5 0 9 -4 9 -8 -1 -11 62 -63 72 -59
4 1 8 -3 8 -9 0 -5 5 -7 12 -3 6 4 8 3 5 -3 -3 -5 7 -20 24 -32 17 -13 28 -17
27 -9 -2 7 2 12 9 11 6 -1 10 5 9 14 -3 20 -55 63 -76 63 -13 0 -13 -1 0 -10
12 -8 9 -10 -12 -7 -15 1 -31 6 -35 11 -4 4 -1 6 7 4 9 -2 15 4 15 17 0 12 -8
21 -20 24 -18 3 -18 2 -5 -15 13 -17 12 -17 -10 1 -14 11 -27 22 -30 25 -3 3
-13 6 -24 7 -14 1 -15 -2 -7 -10z"/>
<path d="M3260 3936 c0 -10 72 -86 81 -86 19 0 7 17 -36 53 -25 21 -45 36 -45
33z"/>
<path d="M7019 3893 c-13 -16 -12 -17 4 -4 9 7 17 15 17 17 0 8 -8 3 -21 -13z"/>
<path d="M6934 3831 c-27 -25 -54 -53 -60 -61 -6 -10 -3 -10 7 2 9 9 19 15 21
12 3 -2 20 12 39 33 18 21 36 38 41 38 8 0 13 14 6 20 -1 2 -26 -18 -54 -44z"/>
<path d="M3380 3849 c0 -5 -4 -7 -10 -4 -13 8 -24 -39 -16 -71 5 -18 12 -24
22 -20 9 3 12 2 9 -4 -10 -17 24 -23 55 -10 28 12 33 10 75 -24 25 -21 45 -34
45 -30 0 4 7 -1 16 -12 14 -18 15 -18 4 4 -7 13 -14 22 -16 19 -2 -2 -22 13
-44 34 -29 28 -40 46 -40 68 0 34 -24 63 -45 55 -8 -4 -13 -10 -10 -14 7 -11
-27 -37 -48 -37 -15 0 -15 2 3 19 11 11 18 23 15 29 -8 12 -15 12 -15 -2z m90
-53 c0 -2 -8 -10 -17 -17 -16 -13 -17 -12 -4 4 13 16 21 21 21 13z"/>
<path d="M3890 3730 c0 -5 5 -10 11 -10 5 0 7 5 4 10 -3 6 -8 10 -11 10 -2 0
-4 -4 -4 -10z"/>
<path d="M3880 3699 c0 -5 5 -7 10 -4 6 3 10 8 10 11 0 2 -4 4 -10 4 -5 0 -10
-5 -10 -11z"/>
<path d="M3600 3661 c0 -6 4 -13 10 -16 6 -3 7 1 4 9 -7 18 -14 21 -14 7z"/>
<path d="M6720 3658 c0 -4 4 -8 9 -8 6 0 12 4 15 8 3 5 -1 9 -9 9 -8 0 -15 -4
-15 -9z"/>
<path d="M6283 3615 c0 -8 4 -12 9 -9 4 3 8 9 8 15 0 5 -4 9 -8 9 -5 0 -9 -7
-9 -15z"/>
<path d="M6660 3615 c-11 -13 -10 -14 4 -9 9 3 16 10 16 15 0 13 -6 11 -20 -6z"/>
<path d="M3676 3607 c3 -10 9 -15 12 -12 3 3 0 11 -7 18 -10 9 -11 8 -5 -6z"/>
<path d="M3700 3592 c0 -31 453 -264 509 -261 18 0 -7 13 -119 59 -108 45
-256 125 -362 194 -16 10 -28 14 -28 8z"/>
<path d="M4180 3580 c0 -5 5 -10 11 -10 5 0 7 5 4 10 -3 6 -8 10 -11 10 -2 0
-4 -4 -4 -10z"/>
<path d="M6581 3571 c-11 -11 -22 -17 -25 -13 -3 3 -6 0 -6 -7 0 -7 -4 -10 -9
-6 -5 3 -13 0 -16 -6 -13 -20 1 -18 49 10 27 16 43 31 37 35 -5 4 -19 -2 -30
-13z"/>
<path d="M4216 3564 c-9 -24 -7 -36 4 -29 6 4 8 11 5 16 -4 5 3 9 14 9 29 0
36 -19 10 -28 l-23 -9 23 -6 c13 -3 20 -3 17 0 -3 4 -1 12 5 19 7 9 4 17 -13
28 -28 20 -34 20 -42 0z"/>
<path d="M6484 3516 c-10 -8 -16 -17 -13 -20 3 -3 14 1 25 8 10 8 16 17 13 20
-3 3 -14 -1 -25 -8z"/>
<path d="M6445 3490 c3 -5 8 -10 11 -10 2 0 4 5 4 10 0 6 -5 10 -11 10 -5 0
-7 -4 -4 -10z"/>
<path d="M6404 3475 c-17 -13 -17 -14 -2 -15 9 0 20 5 23 11 11 17 0 20 -21 4z"/>
<path d="M6365 3450 c3 -5 8 -10 11 -10 2 0 4 5 4 10 0 6 -5 10 -11 10 -5 0
-7 -4 -4 -10z"/>
<path d="M6315 3429 c-9 -14 -2 -20 14 -10 8 6 9 11 3 15 -6 3 -14 1 -17 -5z"/>
<path d="M6225 3393 c-66 -28 -71 -30 -62 -39 3 -3 20 1 39 9 18 8 48 21 66
28 17 8 32 17 32 21 0 11 -8 9 -75 -19z"/>
<path d="M6017 3372 c-33 -36 -37 -65 -12 -95 18 -23 29 -28 56 -25 26 2 33 7
31 21 -2 10 3 16 10 15 8 -2 14 9 16 28 2 25 -3 37 -24 53 -33 26 -56 27 -77
3z"/>
<path d="M5908 3283 c7 -3 16 -2 19 1 4 3 -2 6 -13 5 -11 0 -14 -3 -6 -6z"/>
<path d="M2320 2042 c0 -117 -3 -152 -16 -170 -21 -30 -65 -29 -102 3 l-30 25
-21 -26 c-27 -35 -27 -39 11 -65 23 -17 50 -24 94 -27 71 -5 97 6 124 51 18
28 20 51 20 195 l0 162 -40 0 -40 0 0 -148z"/>
<path d="M2507 2184 c-4 -4 -7 -97 -7 -206 l0 -198 160 0 160 0 0 35 0 35
-115 0 -115 0 0 50 0 50 100 0 100 0 0 35 0 35 -100 0 -100 0 0 50 0 50 116 0
115 0 -3 33 -3 32 -151 3 c-82 1 -153 -1 -157 -4z"/>
<path d="M2900 1985 l0 -205 160 0 160 0 0 35 0 35 -115 0 -115 0 0 50 0 50
100 0 100 0 0 35 0 35 -100 0 -100 0 0 50 0 50 110 0 110 0 0 35 0 35 -155 0
-155 0 0 -205z"/>
<path d="M3260 2178 c0 -7 29 -83 64 -168 36 -85 72 -172 80 -192 14 -36 17
-38 59 -38 l44 0 81 199 c45 109 82 201 82 205 0 4 -19 6 -42 4 l-42 -3 -58
-140 c-31 -77 -59 -144 -61 -149 -1 -5 -29 59 -61 142 l-59 152 -43 0 c-28 0
-44 -4 -44 -12z"/>
<path d="M3750 1994 c-47 -108 -86 -201 -88 -205 -2 -5 16 -9 41 -9 43 0 45 1
62 45 l17 46 96 -3 95 -3 16 -42 c15 -42 16 -43 62 -43 l47 0 -48 113 c-26 61
-65 153 -86 202 l-39 90 -45 3 -46 3 -84 -197z m159 23 c17 -43 31 -80 31 -82
0 -3 -30 -5 -66 -5 -36 0 -64 4 -62 8 2 5 16 43 33 85 16 42 30 75 31 74 1 -1
16 -37 33 -80z"/>
<path d="M4160 1985 l0 -205 40 0 39 0 3 132 3 132 98 -132 c97 -131 98 -132
137 -132 l40 0 0 205 0 205 -40 0 -40 0 0 -135 0 -136 -67 88 c-128 169 -141
183 -179 183 l-34 0 0 -205z"/>
<path d="M4780 1986 l0 -206 45 0 45 0 0 54 0 53 75 6 c83 6 125 25 159 70 26
35 27 107 3 154 -28 54 -66 67 -204 71 l-123 4 0 -206z m234 113 c33 -26 36
-79 6 -109 -16 -16 -33 -20 -85 -20 l-65 0 0 75 0 75 59 0 c44 0 65 -5 85 -21z"/>
<path d="M5200 1985 l0 -205 45 0 45 0 0 60 0 60 50 0 50 0 30 -60 30 -60 50
0 c28 0 50 2 50 5 0 2 -18 32 -39 66 l-39 62 33 32 c38 39 50 88 35 143 -20
76 -77 101 -232 102 l-108 0 0 -205z m223 124 c30 -16 37 -28 37 -65 0 -49
-30 -69 -107 -69 l-65 0 0 68 c1 37 1 69 1 72 2 10 113 5 134 -6z"/>
<path d="M5720 2083 c-24 -60 -63 -150 -87 -202 -24 -51 -43 -95 -43 -97 0 -2
19 -4 43 -4 42 0 44 2 63 43 l19 42 93 3 92 3 20 -46 c19 -44 20 -45 65 -45
25 0 45 2 45 5 0 3 -10 27 -23 53 -13 26 -52 116 -87 200 l-63 152 -47 0 -46
0 -44 -107z m123 -66 c15 -39 27 -75 27 -79 0 -5 -27 -8 -60 -8 -33 0 -60 3
-60 8 0 15 53 152 59 152 3 0 18 -33 34 -73z"/>
<path d="M6090 1985 l0 -205 40 0 39 0 3 132 3 132 100 -132 100 -132 43 0 42
0 -2 203 -3 202 -40 0 -40 0 -5 -129 -5 -130 -99 132 c-97 130 -99 132 -137
132 l-39 0 0 -205z"/>
<path d="M6685 2158 c-7 -18 -46 -105 -85 -193 -39 -88 -74 -166 -77 -172 -4
-9 7 -13 39 -13 42 0 45 2 66 45 l22 45 89 0 c95 0 101 -3 118 -55 9 -27 14
-30 56 -33 26 -2 47 0 47 3 0 6 -129 308 -161 378 -11 23 -18 27 -56 27 -40 0
-45 -3 -58 -32z m112 -205 c5 -22 3 -23 -56 -23 -33 0 -61 4 -61 10 0 5 9 33
21 62 12 29 25 64 31 78 9 23 11 21 35 -40 13 -36 27 -75 30 -87z"/>
<path d="M7070 1994 c-47 -108 -86 -200 -88 -205 -2 -5 17 -9 41 -9 44 0 46 1
63 45 l17 45 94 0 94 0 19 -45 c19 -44 20 -45 65 -45 26 0 45 4 43 9 -1 5 -41
97 -88 205 l-85 196 -45 0 -45 0 -85 -196z m164 23 c14 -37 26 -72 26 -77 0
-10 -112 -14 -122 -4 -3 3 8 41 26 84 17 43 34 76 37 72 3 -4 18 -37 33 -75z"/>
<path d="M7480 1985 l0 -205 40 0 40 0 1 143 0 142 62 -122 c59 -117 63 -123
92 -123 29 1 33 6 85 119 l55 119 3 -139 3 -139 39 0 40 0 0 205 0 205 -50 0
-50 0 -62 -125 c-34 -69 -64 -125 -68 -125 -3 0 -32 56 -64 125 l-59 125 -53
0 -54 0 0 -205z"/>
<path d="M3486 1531 c-4 -7 -5 -15 -2 -18 9 -9 19 4 14 18 -4 11 -6 11 -12 0z"/>
<path d="M3610 1530 c0 -5 9 -10 21 -10 11 0 17 5 14 10 -3 6 -13 10 -21 10
-8 0 -14 -4 -14 -10z"/>
<path d="M4800 1536 c0 -2 7 -7 16 -10 8 -3 12 -2 9 4 -6 10 -25 14 -25 6z"/>
<path d="M5175 1520 c-3 -5 -1 -10 4 -10 6 0 11 5 11 10 0 6 -2 10 -4 10 -3 0
-8 -4 -11 -10z"/>
<path d="M6665 1520 c4 -6 11 -8 16 -5 14 9 11 15 -7 15 -8 0 -12 -5 -9 -10z"/>
<path d="M3918 1393 c7 -3 16 -2 19 1 4 3 -2 6 -13 5 -11 0 -14 -3 -6 -6z"/>
<path d="M3491 1314 c0 -11 3 -14 6 -6 3 7 2 16 -1 19 -3 4 -6 -2 -5 -13z"/>
<path d="M6528 1303 c7 -3 16 -2 19 1 4 3 -2 6 -13 5 -11 0 -14 -3 -6 -6z"/>
</g>
</svg>
